<?xml version="1.0" encoding="UTF-8" standalone="no"?>
<!DOCTYPE svg PUBLIC "-//W3C//DTD SVG 1.1//EN" "http://www.w3.org/Graphics/SVG/1.1/DTD/svg11.dtd">
<svg width="100%" height="100%" viewBox="0 0 16 16" version="1.1" xmlns="http://www.w3.org/2000/svg" xmlns:xlink="http://www.w3.org/1999/xlink" xml:space="preserve" xmlns:serif="http://www.serif.com/" style="fill-rule:evenodd;clip-rule:evenodd;stroke-linejoin:round;stroke-miterlimit:2;">
    <g transform="matrix(4.16667,0,0,4.16667,-1661.98,-1662.73)">
        <g>
            <path d="M112.584,169.414C100,187.343 100,240.636 100,347.223L100,399.713C100,587.647 241.299,678.85 329.952,717.577C354,728.08 366.023,733.333 400,733.333C433.977,733.333 446,728.08 470.047,717.577C558.7,678.85 700,587.647 700,399.713L700,347.223C700,240.636 700,187.343 687.417,169.414C674.833,151.485 624.723,134.332 524.503,100.027L505.41,93.491C453.167,75.608 427.047,66.667 400,66.667C372.953,66.667 346.833,75.608 294.591,93.491L275.497,100.026C175.277,134.332 125.168,151.485 112.584,169.414ZM208.333,400C208.333,374.83 213.291,349.907 222.923,326.652C232.555,303.398 246.673,282.269 264.471,264.471C282.269,246.673 303.398,232.555 326.652,222.923C349.907,213.291 374.83,208.333 400,208.333C425.17,208.333 450.093,213.291 473.347,222.923C496.603,232.555 517.73,246.673 535.53,264.471C553.327,282.269 567.443,303.398 577.077,326.652C586.71,349.907 591.667,374.83 591.667,400C591.667,425.17 586.71,450.093 577.077,473.347C567.443,496.603 553.327,517.73 535.53,535.53C517.73,553.327 496.603,567.443 473.347,577.077C450.093,586.71 425.17,591.667 400,591.667C374.83,591.667 349.907,586.71 326.652,577.077C303.398,567.443 282.269,553.327 264.471,535.53C246.673,517.73 232.555,496.603 222.923,473.347C213.291,450.093 208.333,425.17 208.333,400Z" style="fill:rgb(28,39,76);"/>
        </g>
    </g>
    <g transform="matrix(0.022,0,0,0.022,-0.7,-0.8)">
        <path d="M398.127,258.921C399.283,258.345 399.853,258.333 400,258.333C400.147,258.333 400.717,258.345 401.873,258.921C403.12,259.54 405.06,260.83 407.53,263.387C412.62,268.658 418.463,277.77 423.93,291.434C429.317,304.905 433.81,321.476 436.927,340.307C438.77,351.423 440.09,363.07 440.863,375L359.137,375C359.91,363.07 361.23,351.423 363.073,340.307C366.19,321.476 370.683,304.905 376.07,291.434C381.537,277.769 387.38,268.658 392.47,263.387C394.94,260.83 396.88,259.54 398.127,258.921Z" style="fill:rgb(36,196,94);fill-rule:nonzero;"/>
    </g>
    <g transform="matrix(0.022,0,0,0.022,-0.7,-0.8)">
        <path d="M309.044,375C309.881,360.367 311.452,345.967 313.744,332.133C316.963,312.704 321.596,294.437 327.579,278.243C317.491,284.244 308.164,291.489 299.827,299.827C286.672,312.981 276.236,328.599 269.117,345.787C265.213,355.21 262.348,365.007 260.557,375L309.044,375Z" style="fill:rgb(36,196,94);fill-rule:nonzero;"/>
    </g>
    <g transform="matrix(0.022,0,0,0.022,-0.7,-0.8)">
        <path d="M260.557,425L309.044,425C309.881,439.633 311.452,454.033 313.744,467.867C316.963,487.297 321.596,505.563 327.579,521.757C317.491,515.757 308.164,508.51 299.827,500.173C286.672,487.02 276.236,471.4 269.117,454.213C265.213,444.79 262.348,434.993 260.557,425Z" style="fill:rgb(36,196,94);fill-rule:nonzero;"/>
    </g>
    <g transform="matrix(0.022,0,0,0.022,-0.7,-0.8)">
        <path d="M539.443,375C537.653,365.007 534.787,355.21 530.883,345.787C523.763,328.599 513.33,312.982 500.173,299.827C491.837,291.489 482.51,284.244 472.42,278.243C478.403,294.437 483.037,312.704 486.257,332.133C488.547,345.967 490.12,360.367 490.957,375L539.443,375Z" style="fill:rgb(36,196,94);fill-rule:nonzero;"/>
    </g>
    <g transform="matrix(0.022,0,0,0.022,-0.7,-0.8)">
        <path d="M490.957,425L539.443,425C537.653,434.993 534.787,444.79 530.883,454.213C523.763,471.4 513.33,487.02 500.173,500.173C491.837,508.51 482.51,515.757 472.42,521.757C478.403,505.563 483.037,487.297 486.257,467.867C488.547,454.033 490.12,439.633 490.957,425Z" style="fill:rgb(36,196,94);fill-rule:nonzero;"/>
    </g>
    <g transform="matrix(0.022,0,0,0.022,-0.7,-0.8)">
        <path d="M440.863,425C440.09,436.93 438.77,448.577 436.927,459.693C433.81,478.523 429.317,495.097 423.93,508.567C418.463,522.23 412.62,531.343 407.53,536.613C405.06,539.17 403.12,540.46 401.873,541.08C400.717,541.657 400.147,541.667 400,541.667C399.853,541.667 399.283,541.657 398.127,541.08C396.88,540.46 394.94,539.17 392.47,536.613C387.38,531.343 381.537,522.23 376.07,508.567C370.683,495.097 366.19,478.523 363.073,459.693C361.23,448.577 359.91,436.93 359.137,425L440.863,425Z" style="fill:rgb(36,196,94);fill-rule:nonzero;"/>
    </g>
    <g transform="matrix(0.022,0,0,0.022,-0.8,-0.8)">
        <path d="M112.584,169.414C100,187.343 100,240.636 100,347.223L100,399.713C100,587.647 241.299,678.85 329.952,717.577C354,728.08 366.023,733.333 400,733.333C433.977,733.333 446,728.08 470.047,717.577C558.7,678.85 700,587.647 700,399.713L700,347.223C700,240.636 700,187.343 687.417,169.414C674.833,151.485 624.723,134.332 524.503,100.027L505.41,93.491C453.167,75.608 427.047,66.667 400,66.667C372.953,66.667 346.833,75.608 294.591,93.491L275.497,100.026C175.277,134.332 125.168,151.485 112.584,169.414ZM208.333,400C208.333,374.83 213.291,349.907 222.923,326.652C232.555,303.398 246.673,282.269 264.471,264.471C282.269,246.673 303.398,232.555 326.652,222.923C349.907,213.291 374.83,208.333 400,208.333C425.17,208.333 450.093,213.291 473.347,222.923C496.603,232.555 517.73,246.673 535.53,264.471C553.327,282.269 567.443,303.398 577.077,326.652C586.71,349.907 591.667,374.83 591.667,400C591.667,425.17 586.71,450.093 577.077,473.347C567.443,496.603 553.327,517.73 535.53,535.53C517.73,553.327 496.603,567.443 473.347,577.077C450.093,586.71 425.17,591.667 400,591.667C374.83,591.667 349.907,586.71 326.652,577.077C303.398,567.443 282.269,553.327 264.471,535.53C246.673,517.73 232.555,496.603 222.923,473.347C213.291,450.093 208.333,425.17 208.333,400Z" style="fill:rgb(36,196,94);"/>
    </g>
</svg>
